<svg width="143" height="55" viewBox="0 0 143 55" fill="none" xmlns="http://www.w3.org/2000/svg">
<path d="M19.4611 8.25419C23.0567 8.25419 26.3253 9.13299 29.2671 10.8906C32.2089 12.6482 34.5473 14.9959 36.2822 17.9336C38.0422 20.8713 38.9223 24.1229 38.9223 27.6883V46.9341H31.3792V27.6883C31.3792 24.4242 30.21 21.6246 27.8717 19.2895C25.5585 16.9544 22.7549 15.7868 19.4611 15.7868C16.1925 15.7868 13.389 16.9544 11.0506 19.2895C8.71225 21.6246 7.54308 24.4242 7.54308 27.6883V46.9341H0V27.6883C0 27.6381 0 27.5879 0 27.5377C0 27.5126 0 27.4874 0 27.4623V0H7.54308V12.3595C9.20255 11.0538 11.038 10.0495 13.0495 9.34641C15.0862 8.61826 17.2234 8.25419 19.4611 8.25419Z" fill="#00403D"/>
<path d="M60.4955 8.06587C64.0407 8.06587 67.2842 8.93212 70.226 10.6646C73.1678 12.3971 75.5062 14.7197 77.2411 17.6323C78.976 20.5198 79.8812 23.7588 79.9566 27.3493V47.0095H72.4135V42.8665C70.7541 44.1471 68.906 45.1514 66.8694 45.8796C64.8579 46.5826 62.7333 46.9341 60.4955 46.9341C56.9251 46.9341 53.6564 46.0679 50.6895 44.3354C47.7477 42.5778 45.3967 40.2301 43.6367 37.2924C41.9018 34.3547 41.0343 31.0905 41.0343 27.5C41.0343 23.9346 41.9018 20.683 43.6367 17.7453C45.3967 14.8076 47.7477 12.4599 50.6895 10.7023C53.6564 8.94468 56.9251 8.06587 60.4955 8.06587ZM60.4955 39.4015C63.7893 39.4015 66.5928 38.2465 68.906 35.9365C71.2444 33.6014 72.4135 30.7892 72.4135 27.5C72.4135 24.2359 71.2444 21.4363 68.906 19.1011C66.5928 16.766 63.7893 15.5985 60.4955 15.5985C57.2017 15.5985 54.3856 16.766 52.0472 19.1011C49.734 21.4363 48.5774 24.2359 48.5774 27.5C48.5774 30.7892 49.734 33.6014 52.0472 35.9365C54.3856 38.2465 57.2017 39.4015 60.4955 39.4015Z" fill="#00403D"/>
<path d="M82.2195 27.6883C82.2195 24.1229 83.0996 20.8713 84.8596 17.9336C86.6197 14.9959 88.9706 12.6482 91.9124 10.8906C94.8542 9.13299 98.1103 8.25419 101.681 8.25419V15.7868C98.412 15.7868 95.6085 16.9544 93.2701 19.2895C90.9318 21.6246 89.7626 24.4242 89.7626 27.6883V46.9341H82.2195V27.6883Z" fill="#00403D"/>
<path d="M123.405 8.06587C127 8.06587 130.269 8.94468 133.211 10.7023C136.153 12.4599 138.491 14.8076 140.226 17.7453C141.986 20.683 142.866 23.9346 142.866 27.5C142.866 31.0905 141.986 34.3547 140.226 37.2924C138.491 40.2301 136.153 42.5778 133.211 44.3354C130.269 46.0679 127 46.9341 123.405 46.9341C121.167 46.9341 119.03 46.5826 116.993 45.8796C114.982 45.1514 113.146 44.1471 111.487 42.8665V55H103.944V27.3493C104.019 23.7588 104.924 20.5198 106.659 17.6323C108.394 14.7197 110.732 12.3971 113.674 10.6646C116.616 8.93212 119.859 8.06587 123.405 8.06587ZM123.405 39.4015C126.699 39.4015 129.502 38.2465 131.815 35.9365C134.154 33.6014 135.323 30.7892 135.323 27.5C135.323 24.2359 134.154 21.4363 131.815 19.1011C129.502 16.766 126.699 15.5985 123.405 15.5985C120.136 15.5985 117.333 16.766 114.994 19.1011C112.656 21.4363 111.487 24.2359 111.487 27.5C111.487 30.7892 112.656 33.6014 114.994 35.9365C117.333 38.2465 120.136 39.4015 123.405 39.4015Z" fill="#00403D"/>
</svg>
